<?xml version="1.0" encoding="utf-8"?>
<!-- Generator: Adobe Illustrator 24.3.0, SVG Export Plug-In . SVG Version: 6.00 Build 0)  -->
<svg version="1.1" id="Layer_1" xmlns="http://www.w3.org/2000/svg" xmlns:xlink="http://www.w3.org/1999/xlink" x="0px" y="0px"
	 viewBox="0 0 1100 94" style="enable-background:new 0 0 1100 94;" xml:space="preserve">
<style type="text/css">
	.st0{fill:#ED005A;}
</style>
<polygon class="st0" points="1081.03,0 1062.07,0 1043.1,0 1024.14,0 1005.17,0 986.21,0 967.24,0 948.28,0 929.31,0 910.34,0 
	891.38,0 872.41,0 853.45,0 834.48,0 815.52,0 796.55,0 777.59,0 758.62,0 739.66,0 720.69,0 701.72,0 682.76,0 663.79,0 644.83,0 
	625.86,0 606.9,0 587.93,0 568.97,0 550,0 531.03,0 512.07,0 493.1,0 474.14,0 455.17,0 436.21,0 417.24,0 398.28,0 379.31,0 
	360.34,0 341.38,0 322.41,0 303.45,0 284.48,0 265.52,0 246.55,0 227.59,0 208.62,0 189.66,0 170.69,0 151.72,0 132.76,0 113.79,0 
	94.83,0 75.86,0 56.9,0 37.93,0 18.97,0 0,0 0,60.98 18.97,60.98 18.97,56.96 37.93,56.96 37.93,65.07 56.9,65.07 56.9,57.45 
	75.86,57.45 75.86,77.09 94.83,77.09 94.83,48.81 113.79,48.81 113.79,81.91 132.76,81.91 132.76,55.08 151.72,55.08 151.72,82.36 
	170.69,82.36 170.69,62.92 189.66,62.92 189.66,83.87 208.62,83.87 208.62,94 227.59,94 227.59,66.07 246.55,66.07 246.55,84.04 
	265.52,84.04 265.52,49.25 284.48,49.25 284.48,63.63 303.45,63.63 303.45,88.39 322.41,88.39 322.41,61.2 341.38,61.2 
	341.38,52.73 360.34,52.73 360.34,73.61 379.31,73.61 379.31,73.51 398.28,73.51 398.28,74.3 417.24,74.3 417.24,67.87 
	436.21,67.87 436.21,54.81 455.17,54.81 455.17,71.56 474.14,71.56 474.14,69.47 493.1,69.47 493.1,88.42 512.07,88.42 
	512.07,79.03 531.03,79.03 531.03,89.3 550,89.3 550,63.17 568.97,63.17 568.97,68.35 587.93,68.35 587.93,47.48 606.9,47.48 
	606.9,89.48 625.86,89.48 625.86,65.05 644.83,65.05 644.83,80.66 663.79,80.66 663.79,48.02 682.76,48.02 682.76,59.08 
	701.72,59.08 701.72,69.52 720.69,69.52 720.69,44.86 739.66,44.86 739.66,81.11 758.62,81.11 758.62,46.15 777.59,46.15 
	777.59,66.17 796.55,66.17 796.55,73.35 815.52,73.35 815.52,54.56 834.48,54.56 834.48,65.52 853.45,65.52 853.45,68.79 
	872.41,68.79 872.41,86.39 891.38,86.39 891.38,47.01 910.34,47.01 910.34,73.2 929.31,73.2 929.31,63.26 948.28,63.26 
	948.28,45.88 967.24,45.88 967.24,90.12 986.21,90.12 986.21,59.54 1005.17,59.54 1005.17,74.18 1024.14,74.18 1024.14,57.98 
	1043.1,57.98 1043.1,69.6 1062.07,69.6 1062.07,61.15 1081.03,61.15 1081.03,50.15 1100,50.15 1100,0 "/>
</svg>
